<?xml version="1.0" encoding="UTF-8" standalone="no" ?>
<!DOCTYPE svg PUBLIC "-//W3C//DTD SVG 1.1//EN" "http://www.w3.org/Graphics/SVG/1.1/DTD/svg11.dtd">
<svg xmlns="http://www.w3.org/2000/svg" xmlns:xlink="http://www.w3.org/1999/xlink" version="1.1" width="1000" height="1000" viewBox="0 0 1000 1000" xml:space="preserve">
<desc>Created with Fabric.js 5.2.4</desc>
<defs>
</defs>
<rect x="0" y="0" width="100%" height="100%" fill="transparent"></rect>
<g transform="matrix(0 0 0 0 0 0)" id="3b821be6-1b1b-4010-9648-9c375d4763cb"  >
</g>
<g transform="matrix(1 0 0 1 500 500)" id="b18c247a-c3b6-45ef-8dac-064a107f78ee"  >
<rect style="stroke: none; stroke-width: 1; stroke-dasharray: none; stroke-linecap: butt; stroke-dashoffset: 0; stroke-linejoin: miter; stroke-miterlimit: 4; fill: rgb(255,255,255); fill-rule: nonzero; opacity: 1; visibility: hidden;" vector-effect="non-scaling-stroke"  x="-500" y="-500" rx="0" ry="0" width="1000" height="1000" />
</g>
<g transform="matrix(3.71 0 0 3.71 500 500)"  >
<g style="" vector-effect="non-scaling-stroke"   >
		<g transform="matrix(1 0 0 1 -11.11 72.2)"  >
<path style="stroke: none; stroke-width: 1; stroke-dasharray: none; stroke-linecap: butt; stroke-dashoffset: 0; stroke-linejoin: miter; stroke-miterlimit: 4; fill: rgb(171,10,61); fill-rule: nonzero; opacity: 1;" vector-effect="non-scaling-stroke"  transform=" translate(-153.52, -192.7)" d="M 162.85 145.58 C 162.14475952680394 144.8740807773591 161.18784070568793 144.47744237943178 160.19 144.47744237943178 C 159.19215929431206 144.47744237943178 158.23524047319606 144.8740807773591 157.53 145.58 L 149.4 153.71 C 145.35097618611766 157.74283117042688 143.0795284509784 163.225263659519 143.09 168.94 L 143.09 237.16 C 143.09 239.23659065936377 144.77340934063622 240.92 146.85000000000002 240.92 C 148.9265906593638 240.92 150.61 239.23659065936377 150.61 237.16 L 150.61 168.94 C 150.59929883360368 165.21696057460912 152.07939437088106 161.64456453329734 154.72000000000003 159.02 L 162.85000000000002 150.89000000000001 C 163.55531275515727 150.18646802742376 163.95170337764065 149.2312044564368 163.95170337764065 148.235 C 163.95170337764065 147.2387955435632 163.55531275515727 146.28353197257627 162.85000000000002 145.58" stroke-linecap="round" />
</g>
		<g transform="matrix(1 0 0 1 -62.95 60.79)"  >
<path style="stroke: none; stroke-width: 1; stroke-dasharray: none; stroke-linecap: butt; stroke-dashoffset: 0; stroke-linejoin: miter; stroke-miterlimit: 4; fill: rgb(171,10,61); fill-rule: nonzero; opacity: 1;" vector-effect="non-scaling-stroke"  transform=" translate(-101.69, -181.29)" d="M 164.15 128.14 L 142.49 121.57 C 139.42000000000002 127.30999999999999 135.83 132.57 132.06 138.16 C 131.81361112142625 138.84029017489587 131.53325898208024 139.50779526857684 131.22 140.16 C 131.10999999999999 140.37 130.98 140.54999999999998 130.87 140.76 L 136.58 133.62 C 129.82366567889474 147.84366737831968 119.59198539085159 160.135440605031 106.83000000000001 169.36 C 94.09800961194482 160.12807229718956 83.88057005278685 147.8547683852804 77.11000000000003 133.66000000000003 L 80.26000000000002 137.59000000000003 C 80.03000000000002 137.15000000000003 79.78000000000002 136.70000000000005 79.60000000000002 136.26000000000002 C 79.49000000000002 136.18 79.41000000000003 136.09000000000003 79.30000000000003 136.01000000000002 C 78.04703831464124 134.55306222451483 77.0526826132765 132.8924205599907 76.36000000000003 131.10000000000002 C 73.96587048683831 128.3014223562682 72.07152580588404 125.11148122387554 70.76000000000003 121.67000000000002 L 48.56000000000003 128.33 C 41.309068800268044 130.47374175166746 36.34549984185187 137.14888621298576 36.38000000000003 144.71 L 36.38000000000003 237.05 C 36.308359867428884 238.4377678674332 37.00797822739162 239.75190308507356 38.19929819999698 240.46729716203143 C 39.39061817260235 241.1826912389893 40.87938182739771 241.1826912389893 42.07070180000308 240.46729716203143 C 43.26202177260844 239.75190308507356 43.961640132571176 238.4377678674332 43.89000000000003 237.05 L 43.89000000000003 144.72 C 43.87480307973428 144.44687789811687 43.87480307973428 144.17312210188314 43.89000000000003 143.9 L 58.89000000000003 158.9 C 61.53711921047704 161.52100080696627 63.02141878705554 165.09484833115528 63.010000000000026 168.82 L 63.010000000000026 237.04 C 62.93835986742888 238.42776786743318 63.63797822739161 239.74190308507355 64.82929819999698 240.4572971620314 C 66.02061817260234 241.17269123898927 67.5093818273977 241.17269123898927 68.70070180000307 240.4572971620314 C 69.89202177260844 239.74190308507355 70.59164013257117 238.42776786743318 70.52000000000002 237.04 L 70.52000000000002 168.84 C 70.53648090941866 163.12113966539144 68.26431747520158 157.63337885121265 64.21000000000002 153.6 L 47.71 137.06 C 48.61153213872383 136.37876940875353 49.62748192925318 135.8640215148853 50.71 135.54 L 67.64 130.45999999999998 C 75.00423124809583 149.3908044752817 87.94116777386849 165.6404336424247 104.73999999999997 177.05999999999995 C 105.99956512180458 177.8996367679946 107.64043487819544 177.8996367679946 108.9 177.05999999999997 C 135.70000000000002 159.18999999999997 145.26 132.78999999999996 146.05 130.49999999999997 L 162 135.33 C 163.30378264847482 135.78658163179634 164.75294093999653 135.49146181759605 165.77432704873112 134.56136160910137 C 166.79571315746568 133.6312614006067 167.2248246213965 132.21598093011931 166.89194616232976 130.8752692114985 C 166.55906770326303 129.5345574928777 165.51781207899964 128.48434695038648 164.18 128.14000000000001" stroke-linecap="round" />
</g>
		<g transform="matrix(1 0 0 1 -11.11 72.2)"  >
<path style="stroke: none; stroke-width: 1; stroke-dasharray: none; stroke-linecap: butt; stroke-dashoffset: 0; stroke-linejoin: miter; stroke-miterlimit: 4; fill: rgb(171,10,61); fill-rule: nonzero; opacity: 1;" vector-effect="non-scaling-stroke"  transform=" translate(-153.52, -192.7)" d="M 162.85 145.58 C 162.14475952680394 144.8740807773591 161.18784070568793 144.47744237943178 160.19 144.47744237943178 C 159.19215929431206 144.47744237943178 158.23524047319606 144.8740807773591 157.53 145.58 L 149.4 153.71 C 145.35097618611766 157.74283117042688 143.0795284509784 163.225263659519 143.09 168.94 L 143.09 237.16 C 143.09 239.23659065936377 144.77340934063622 240.92 146.85000000000002 240.92 C 148.9265906593638 240.92 150.61 239.23659065936377 150.61 237.16 L 150.61 168.94 C 150.59929883360368 165.21696057460912 152.07939437088106 161.64456453329734 154.72000000000003 159.02 L 162.85000000000002 150.89000000000001 C 163.55531275515727 150.18646802742376 163.95170337764065 149.2312044564368 163.95170337764065 148.235 C 163.95170337764065 147.2387955435632 163.55531275515727 146.28353197257627 162.85000000000002 145.58" stroke-linecap="round" />
</g>
		<g transform="matrix(1 0 0 1 62.27 3.28)"  >
<path style="stroke: none; stroke-width: 1; stroke-dasharray: none; stroke-linecap: butt; stroke-dashoffset: 0; stroke-linejoin: miter; stroke-miterlimit: 4; fill: rgb(171,10,61); fill-rule: nonzero; opacity: 1;" vector-effect="non-scaling-stroke"  transform=" translate(-226.91, -123.78)" d="M 226.89 129.76 C 231.50751887604676 129.70054902169002 235.849751452847 127.55333155780235 238.7 123.91999999999999 C 240.00615343334982 122.31008995424322 239.75991004575675 119.9461534333498 238.14999999999998 118.63999999999999 C 236.54008995424323 117.33384656665015 234.1761534333498 117.58008995424322 232.86999999999998 119.18999999999998 C 231.48416245688685 121.12506684949982 229.25013222488477 122.27297777524946 226.86999999999998 122.27297777524946 C 224.4898677751152 122.27297777524946 222.2558375431131 121.12506684949982 220.86999999999998 119.18999999999998 C 219.5405717208847 117.66328187978769 217.2410287852362 117.46318260534967 215.66787791200733 118.73732706260526 C 214.09472703877844 120.01147151986085 213.81275986816004 122.30241716461434 215.02999999999997 123.91999999999999 C 217.88024854715297 127.55333155780234 222.2224811239532 129.70054902169 226.83999999999997 129.76" stroke-linecap="round" />
</g>
		<g transform="matrix(1 0 0 1 22.24 92.21)"  >
<path style="stroke: none; stroke-width: 1; stroke-dasharray: none; stroke-linecap: butt; stroke-dashoffset: 0; stroke-linejoin: miter; stroke-miterlimit: 4; fill: rgb(171,10,61); fill-rule: nonzero; opacity: 1;" vector-effect="non-scaling-stroke"  transform=" translate(-186.87, -212.71)" d="M 186.87 184.5 C 185.87370666781368 184.49734320832815 184.91730846194204 184.89125817949915 184.21188274428098 185.5948077649324 C 183.5064570266199 186.29835735036565 183.1099964576048 187.25370312542475 183.11 188.25 L 183.11 237.16 C 183.11 239.23659065936377 184.79340934063623 240.92 186.87 240.92 C 188.9465906593638 240.92 190.63000000000002 239.23659065936377 190.63000000000002 237.16 L 190.63000000000002 188.25 C 190.63000354239523 187.25370312542475 190.23354297338014 186.29835735036565 189.52811725571905 185.5948077649324 C 188.822691538058 184.89125817949915 187.86629333218636 184.49734320832815 186.87000000000003 184.5" stroke-linecap="round" />
</g>
		<g transform="matrix(1 0 0 1 102.28 92.21)"  >
<path style="stroke: none; stroke-width: 1; stroke-dasharray: none; stroke-linecap: butt; stroke-dashoffset: 0; stroke-linejoin: miter; stroke-miterlimit: 4; fill: rgb(171,10,61); fill-rule: nonzero; opacity: 1;" vector-effect="non-scaling-stroke"  transform=" translate(-266.91, -212.71)" d="M 266.91 184.5 C 265.9137066678137 184.49734320832815 264.9573084619421 184.89125817949915 264.251882744281 185.5948077649324 C 263.5464570266199 186.29835735036565 263.14999645760486 187.25370312542475 263.15000000000003 188.25 L 263.15000000000003 237.16 C 263.1499999065955 238.50331868032438 263.86665183755633 239.74459636897274 265.029999924528 240.4162557360985 C 266.19334801149967 241.08791510322425 267.6266519885004 241.08791510322425 268.79000007547205 240.4162557360985 C 269.9533481624437 239.74459636897274 270.67000009340455 238.50331868032436 270.67 237.16 L 270.67 188.25 C 270.6644875221491 186.1773156536216 268.9826916768011 184.4999926695644 266.91 184.5" stroke-linecap="round" />
</g>
		<g transform="matrix(1 0 0 1 62.22 7.7)"  >
<path style="stroke: none; stroke-width: 1; stroke-dasharray: none; stroke-linecap: butt; stroke-dashoffset: 0; stroke-linejoin: miter; stroke-miterlimit: 4; fill: rgb(171,10,61); fill-rule: nonzero; opacity: 1;" vector-effect="non-scaling-stroke"  transform=" translate(-226.85, -128.2)" d="M 280.34 158.82 C 282.7119328526476 155.79970674692308 284.0008346926565 152.07034322624148 284 148.23 C 283.9957239389181 141.99252799326203 280.5759145127541 136.25830208676476 275.09 133.29 C 275.09 133.07999999999998 275.09 132.88 275.09 132.67 C 275.0964383629335 127.86513260948101 272.7792410675384 123.35367613886447 268.86999999999995 120.55999999999999 C 269.11999999999995 119.69999999999999 269.35999999999996 118.82 269.55999999999995 117.93999999999998 C 270.0674962562714 115.67064914919283 270.38195254285864 113.36240619445674 270.49999999999994 111.03999999999996 C 281.6141577707595 94.68170970517752 282.55058754631887 73.45338842948027 272.91999999999996 56.17999999999996 C 275.0736143279493 54.06373538273093 276.3273930872696 51.19795536142734 276.41999999999996 48.17999999999997 C 276.41999999999996 35.439999999999976 254.14999999999995 28.399999999999977 230.72999999999996 27.56999999999998 C 231.21297713637344 26.291714579748295 231.46030658939034 24.93648470020357 231.45999999999995 23.569999999999983 C 231.45999999999995 19.06999999999998 229.02999999999994 15.429999999999978 226.03999999999996 15.429999999999978 C 223.04999999999998 15.429999999999978 220.62999999999997 19.06999999999998 220.62999999999997 23.56999999999998 C 220.62649694665845 24.93587096295013 220.87043481104672 26.29108132066288 221.34999999999997 27.569999999999975 C 197.93999999999997 28.399999999999977 175.66999999999996 35.439999999999976 175.66999999999996 48.17999999999998 C 175.66999999999996 51.63999999999998 177.31999999999996 54.66999999999998 180.18999999999997 57.27999999999998 C 171.21338530253502 74.398975039657 172.365774854843 95.06516101104677 183.18999999999997 111.07999999999998 C 183.31544724302077 113.40230054358031 183.6332021020779 115.71020425673214 184.13999999999996 117.97999999999999 C 184.33999999999995 118.85999999999999 184.56999999999996 119.72999999999999 184.82999999999996 120.6 C 180.91946040137614 123.39255438222126 178.60189343684016 127.90473057844805 178.60999999999996 132.70999999999998 C 178.60999999999996 132.92 178.60999999999996 133.11999999999998 178.60999999999996 133.32999999999998 C 174.1839230100094 135.71892107463955 171.04288674115412 139.94514020650135 170.03164375868076 144.87205496652908 C 169.02040077620737 149.7989697265568 170.24276759536974 154.9207717875691 173.36999999999995 158.85999999999999 C 165.55295046032998 163.54317828543026 160.78053017813298 171.99750561655154 160.80999999999995 181.10999999999999 L 160.80999999999995 237.20999999999998 C 160.80999999999995 239.28659065936375 162.49340934063616 240.96999999999997 164.56999999999994 240.96999999999997 C 166.64659065936374 240.96999999999997 168.32999999999996 239.28659065936375 168.32999999999996 237.20999999999998 L 168.32999999999996 181.10999999999999 C 168.29473766294714 173.51920858683957 172.93199002815496 166.68850009001682 180 163.92 L 180.72 163.63 C 191.82999999999998 178.63 208.95 187.56 226.88 187.56 C 245.05 187.56 261.8 178.86 273.03999999999996 163.63 L 273.76 163.92 C 280.7889225585502 166.7047390915296 285.3955852507157 173.5095853594571 285.37 181.07 L 285.37 237.16 C 285.3700001443909 239.236590557264 287.053409442736 240.91999973855718 289.13 240.91999973855718 C 291.206590557264 240.91999973855718 292.8899998556091 239.236590557264 292.89 237.16 L 292.89 181.07 C 292.919469821867 171.95750561655154 288.14704953967 163.50317828543027 280.33 158.82 M 226.06 36.24 C 252.97 36.24 267.65 44.1 267.65 48.14 C 267.65 52.18 253 60 226.06 60 C 199.12 60 184.48000000000002 52.14 184.48000000000002 48.1 C 184.48000000000002 44.06 199.16000000000003 36.2 226.06 36.2 M 181.73 81.53 C 181.734043968885 74.54135535997025 183.37450040783156 67.65075336589817 186.51999999999998 61.41000000000001 C 196.23 66.3 211.17999999999998 68.83 226.05999999999997 68.83 C 241.60999999999999 68.83 257.26 66.09 266.9 60.76 C 273.24748353609806 72.86376572870223 273.74064675867953 87.19862208657369 268.23999999999995 99.70999999999998 C 262.81999999999994 88.06 250.78999999999996 84.79 239.08999999999995 81.63000000000001 C 229.61999999999995 79.06000000000002 219.83999999999995 76.42000000000002 211.44999999999993 69.71000000000001 C 210.55999733086003 69.00008582885067 209.39568818868224 68.73291825532426 208.2852181407742 68.98379502621768 C 207.17474809286614 69.2346717971111 206.2383736816247 69.97642462176023 205.74 71 C 205.74 71.08 201.74 78.82 194.08 82.66 C 192.81916695608626 83.22468983951595 191.96955200463344 84.43532710905409 191.8672207448839 85.81304365927602 C 191.76488948513435 87.19076020949795 192.42632552348226 88.51363228619377 193.58989751950955 89.25839720852728 C 194.75346951553684 90.0031621308608 196.23174830203902 90.04985253142142 197.44000000000003 89.38 C 202.526047533044 86.70693035402289 206.88749933223122 82.83961628818182 210.15000000000003 78.10999999999999 C 218.90000000000003 83.99 228.52000000000004 86.59 237.15000000000003 88.92 C 239.98000000000005 89.68 242.58000000000004 90.41 244.95000000000005 91.16 L 244.71000000000004 91.16 C 240.2835932511493 91.15681858513913 236.1785533725955 93.47112018025726 233.89000000000004 97.25999999999999 C 229.50700801748954 95.04621738581919 224.33299198251055 95.04621738581919 219.95000000000005 97.25999999999999 C 216.74348026111 91.9705888219732 210.18219243926063 89.77564835714905 204.43837892651314 92.07091430620723 C 198.69456541376567 94.36618025526542 195.45289325244312 100.47844850230575 196.77470198134694 106.52100269158036 C 198.09651071025075 112.56355688085497 203.59411232438268 116.76410898951463 209.77164943538628 116.45157948962728 C 215.94918654638988 116.1390499897399 220.99478048680172 111.40510413942113 221.70000000000005 105.25999999999999 C 224.61800400728447 102.47268312114633 229.21199599271563 102.47268312114633 232.13000000000005 105.25999999999999 C 232.74616755970558 110.8375292504561 236.9630704191183 115.3425219929314 242.48778202963877 116.32540378740477 C 248.01249364015925 117.30828558187814 253.52440710128178 114.53411195130371 256.02643826619476 109.51133034634307 C 258.52846943110774 104.48854874138242 257.4225419015115 98.41778654584556 253.31000000000006 94.6 C 258.68000000000006 97.53 261.99000000000007 101.6 263.21000000000004 108.83 C 263.14823528052835 109.08922497655408 263.111400962918 109.35376234848276 263.1 109.62 C 262.837889268066 120.13102323477119 257.9260160912963 129.9840723365689 249.69000000000003 136.52 C 236.40388359289787 147.2542586137302 217.4261164071022 147.2542586137302 204.14000000000004 136.52 C 195.9099385370079 129.98033335759007 191.00242184406628 120.12867671280428 190.74000000000004 109.62 C 190.7028014006453 108.66473504530191 190.30217247654386 107.75974292210846 189.62000000000003 107.09 C 184.48280119669892 99.59107301629611 181.7420538236835 90.70979622358591 181.76000000000002 81.62 M 249.84000000000003 103.86 C 249.83999606381806 105.93984510317703 248.58659051247048 107.81470515989685 246.66467616777604 108.60969000559056 C 244.74276182308157 109.40467485128428 242.53117376428986 108.96308231665283 241.06193389286486 107.49097842988392 C 239.59269402143988 106.01887454311503 239.15540921016685 103.80643071280832 239.95413531864278 101.88606818014324 C 240.75286142711875 99.96570564747815 242.63015883300125 98.7159536087524 244.71000000000004 98.72 C 246.0722949770737 98.7199974117463 247.37864830707247 99.2618504995804 248.3409979041176 100.22607602176595 C 249.30334750116268 101.19030154395149 249.84265554576677 102.49770761117756 249.84000000000003 103.86 M 214.27000000000004 103.86 C 214.27000000000004 105.93893593832232 213.01767920517474 107.81316645656369 211.0969928423566 108.60874079710801 C 209.17630647953845 109.40431513765233 206.9655008443413 108.96455855493898 205.49547114470118 107.49452885529885 C 204.02544144506106 106.02449915565872 203.5856848623477 103.81369352046157 204.38125920289204 101.89300715764342 C 205.17683354343635 99.9723207948253 207.05106406167772 98.72 209.13000000000005 98.72 C 211.96874361413032 98.72 214.27000000000004 101.02125638586972 214.27000000000004 103.86 M 248.52000000000004 153.86 C 236.33363882135276 165.15183758782942 217.50636117864732 165.15183758782942 205.32000000000005 153.86 C 207.63712492242217 152.85291157278928 209.59600774603635 151.1693877226013 210.94000000000005 149.03 C 221.2220689591339 153.0808643754225 232.6579310408662 153.0808643754225 242.94000000000005 149.03 C 244.28399225396376 151.1693877226013 246.24287507757793 152.85291157278928 248.56000000000006 153.86 M 180.76000000000005 155.62 C 178.08902636098227 153.3811261839852 176.85496234447217 149.86168244872206 177.54287647960757 146.4450422442163 C 178.23079061474297 143.0284020397105 180.73070943249692 140.26076692879582 184.06000000000006 139.23000000000002 C 185.9804719424297 138.61997340637137 187.0786466733039 136.60444789629307 186.55000000000007 134.66000000000003 C 186.36671263464436 134.03581807243773 186.26585713901778 133.39034290042764 186.25000000000006 132.74000000000004 C 186.24693736065393 131.03957432104505 186.83758366448455 129.39142355706258 187.92000000000004 128.08000000000004 C 190.72088548806744 133.59492345000294 194.65307245153912 138.45734181817804 199.46000000000004 142.35000000000005 C 200.95158198060477 143.5485953643315 202.51809534902867 144.65083291567456 204.15000000000006 145.65000000000006 C 203.609252118396 146.27475225447301 202.9221037422015 146.75575611780917 202.15000000000003 147.05000000000007 Z M 226.96000000000004 180.12 C 211.81000000000003 180.12 197.82000000000005 173.12 188.04000000000002 160.8 L 197.79000000000002 156.9 C 205.24462269009643 165.14422723536123 215.84020435815523 169.8483262760969 226.955 169.8483262760969 C 238.0697956418448 169.8483262760969 248.6653773099036 165.1442272353612 256.12 156.9 L 265.88 160.8 C 256.1 173.12 242.07999999999998 180.12 226.95999999999998 180.12 M 273.15999999999997 155.62 L 251.66 147 C 250.89076079790237 146.70037588138626 250.20482265713358 146.2202191828481 249.66 145.6 C 256.62446090780367 141.37267380696133 262.26180633394875 135.27450051254502 265.93 128 C 267.0124163355155 129.3114235570625 267.60306263934615 130.95957432104498 267.6 132.66 C 267.5841428609823 133.3103429004276 267.48328736535575 133.9558180724377 267.3 134.57999999999998 C 266.7704539731589 136.52154891879445 267.86353990580506 138.53582420596908 269.78000000000003 139.14999999999998 C 273.11082513872793 140.17831063363377 275.6132627081141 142.94486750854367 276.30332646518394 146.3618297376596 C 276.9933902222537 149.77879196677551 275.7607140849952 153.29966405638913 273.09000000000003 155.53999999999996" stroke-linecap="round" />
</g>
		<g transform="matrix(1 0 0 1 -15.58 -44.37)"  >
<path style="stroke: none; stroke-width: 1; stroke-dasharray: none; stroke-linecap: butt; stroke-dashoffset: 0; stroke-linejoin: miter; stroke-miterlimit: 4; fill: rgb(171,10,61); fill-rule: nonzero; opacity: 1;" vector-effect="non-scaling-stroke"  transform=" translate(-149.05, -76.13)" d="M 156.36 59.38 C 155.75 59 156.53 59.93 155.94000000000003 59.440000000000005 C 152.54000000000002 56.440000000000005 150.68000000000004 59.53000000000001 148.38000000000002 62.440000000000005 C 150.76242178185012 63.2304123858183 152.20525849896 65.64790871419119 151.77 68.12 C 151.19793377026937 70.66143908677094 148.89302347232376 72.43218221712696 146.29000000000002 72.33 C 144.23550073062947 72.33 142.57000000000002 73.99550073062944 142.57000000000002 76.05 C 142.5781367424465 81.60318131201723 141.29068668529746 87.08169219350259 138.81000000000003 92.05 C 141.38547573648515 91.88688910359778 143.94138758207185 92.5909970500404 146.07000000000002 94.05 C 148.21236205200432 89.39681963998027 149.5060260409677 84.39826454126316 149.89000000000001 79.29 C 153.70755311112114 78.34329590687598 156.8473665755004 75.63753253706602 158.34750761724672 72.00166438062296 C 159.84764865899305 68.36579622417989 159.52930263031806 64.23321351955929 157.49 60.86999999999999 C 157.08087253067927 60.39530048513009 156.70339204826135 59.89422019873463 156.36 59.36999999999999" stroke-linecap="round" />
</g>
		<g transform="matrix(1 0 0 1 -100.89 -43.16)"  >
<path style="stroke: none; stroke-width: 1; stroke-dasharray: none; stroke-linecap: butt; stroke-dashoffset: 0; stroke-linejoin: miter; stroke-miterlimit: 4; fill: rgb(171,10,61); fill-rule: nonzero; opacity: 1;" vector-effect="non-scaling-stroke"  transform=" translate(-63.74, -77.34)" d="M 67.09 72.36 C 64.49000171055144 72.46314491089173 62.186186737837645 70.69744730406728 61.61 68.16 C 61.285635132830166 66.23219157865782 62.09402488263682 64.28894698777644 63.69 63.16 L 61.32 61.63999999999999 L 59.6 60.63999999999999 C 58.6 60.81999999999999 57.52 60.949999999999996 57.17 61.00999999999999 C 56.82 61.069999999999986 56.17 61.16999999999999 55.74 61.21999999999999 C 54.332095026032064 63.69581140177057 53.8133846600862 66.5787118710071 54.27 69.38999999999999 C 55.141950986615 74.23030514402251 58.73626812541044 78.12869683469 63.489999999999995 79.38999999999999 C 63.882536109718785 84.46361446565352 65.17254606513836 89.42727481905276 67.3 94.05 C 68.90471983492375 92.00912348097293 70.99021831889239 90.39775809550127 73.37 89.36 C 71.67497824342273 85.1378614489304 70.80593011620208 80.62967428897328 70.81 76.08000000000003 C 70.81266511566588 75.09258004564455 70.42159356059159 74.14483421706167 69.72337967176496 73.44662032823504 C 69.02516578293833 72.74840643940841 68.07741995435545 72.35733488433412 67.09 72.36" stroke-linecap="round" />
</g>
		<g transform="matrix(1 0 0 1 -75.54 -53.9)"  >
<path style="stroke: none; stroke-width: 1; stroke-dasharray: none; stroke-linecap: butt; stroke-dashoffset: 0; stroke-linejoin: miter; stroke-miterlimit: 4; fill: rgb(171,10,61); fill-rule: nonzero; opacity: 1;" vector-effect="non-scaling-stroke"  transform=" translate(-89.09, -66.6)" d="M 89.09 60.68 C 87.0377809738801 60.68549459183305 85.37549459183305 62.347780973880106 85.37 64.4 L 85.37 68.80000000000001 C 85.37000005596677 70.85449922979608 87.03550077020392 72.51999989866322 89.09 72.51999989866322 C 91.14449922979608 72.51999989866322 92.80999994403324 70.85449922979609 92.81 68.80000000000001 L 92.81 64.4 C 92.80450540816696 62.34778097388011 91.1422190261199 60.685494591833056 89.09 60.68000000000001" stroke-linecap="round" />
</g>
		<g transform="matrix(1 0 0 1 -40.35 -53.9)"  >
<path style="stroke: none; stroke-width: 1; stroke-dasharray: none; stroke-linecap: butt; stroke-dashoffset: 0; stroke-linejoin: miter; stroke-miterlimit: 4; fill: rgb(171,10,61); fill-rule: nonzero; opacity: 1;" vector-effect="non-scaling-stroke"  transform=" translate(-124.28, -66.6)" d="M 124.29 72.52 C 126.3405929449384 72.51448763347024 128.00000740910818 70.85060035403316 128 68.8 L 128 64.4 C 128.00000003620414 63.070971981405535 127.2909720496635 61.84289943322304 126.14000002925341 61.178385413474565 C 124.98902800884333 60.51387139372609 123.57097199115667 60.51387139372609 122.41999997074659 61.178385413474565 C 121.26902795033651 61.84289943322304 120.55999996379585 63.070971981405535 120.56 64.4 L 120.56 68.80000000000001 C 120.56549459183304 70.85221902611991 122.2277809738801 72.51450540816697 124.28 72.52000000000001" stroke-linecap="round" />
</g>
		<g transform="matrix(1 0 0 1 -98.19 -67.29)"  >
<path style="stroke: none; stroke-width: 1; stroke-dasharray: none; stroke-linecap: butt; stroke-dashoffset: 0; stroke-linejoin: miter; stroke-miterlimit: 4; fill: rgb(171,10,61); fill-rule: nonzero; opacity: 1;" vector-effect="non-scaling-stroke"  transform=" translate(-66.44, -53.21)" d="M 76.33 48.26 C 75.74798823026879 48.25004178677342 75.16703003146444 48.206636863874245 74.59 48.129999999999995 C 74.01813593602772 48.057539386214536 73.45063242867353 47.95405345252053 72.89 47.81999999999999 C 72.88882303558967 48.568266544127624 72.59444092927977 49.286271681468826 72.07000000000001 49.81999999999999 L 64.87 57 C 63.73153106432289 57.84176418933796 62.148510020867214 57.723827846703394 61.14734108708191 56.72265891291809 C 60.14617215329661 55.72148997913279 60.028235810662046 54.138468935677125 60.870000000000005 53 L 67.77 46 C 67.63 45.92 67.47 45.86 67.33999999999999 45.78 C 65.23372479867878 44.47435684542077 63.39725401938699 42.77706407343206 61.92999999999999 40.78 L 55.29 47.4 C 51.11748871502836 51.57251128497165 51.11748871502836 58.33748871502836 55.290000000000006 62.510000000000005 C 59.462511284971654 66.68251128497165 66.22748871502836 66.68251128497164 70.4 62.51 L 77.60000000000001 55.309999999999995 C 79.61075775727991 53.313809350762924 80.73498668472803 50.593319478252255 80.72000000000001 47.75999999999999 L 80.72000000000001 47.76 C 79.28642710258838 48.13041043565692 77.81060542417121 48.311946587444 76.33000000000001 48.3" stroke-linecap="round" />
</g>
		<g transform="matrix(1 0 0 1 -19.86 -67.29)"  >
<path style="stroke: none; stroke-width: 1; stroke-dasharray: none; stroke-linecap: butt; stroke-dashoffset: 0; stroke-linejoin: miter; stroke-miterlimit: 4; fill: rgb(171,10,61); fill-rule: nonzero; opacity: 1;" vector-effect="non-scaling-stroke"  transform=" translate(-144.77, -53.21)" d="M 134.88 48.26 C 135.46201176973122 48.25004178677342 136.04296996853557 48.206636863874245 136.62 48.129999999999995 C 137.19186406397228 48.057539386214536 137.75936757132646 47.95405345252053 138.32 47.81999999999999 C 138.32117696441034 48.568266544127624 138.61555907072022 49.286271681468826 139.14 49.81999999999999 L 146.33999999999997 57.019999999999996 C 147.00811735339872 57.923615123885824 148.14350413178366 58.352210629836925 149.2420805744226 58.115502181093575 C 150.34065701706155 57.87879373235023 151.19879373235023 57.02065701706158 151.43550218109357 55.92208057442262 C 151.6722106298369 54.82350413178367 151.2436151238858 53.68811735339873 150.33999999999997 53.019999999999996 L 143.44 46 C 143.57999999999998 45.92 143.74 45.86 143.87 45.78 C 145.97627520132122 44.47435684542077 147.812745980613 42.77706407343206 149.28 40.78 L 155.92 47.410000000000004 C 160.09251128497164 51.582511284971645 160.09251128497164 58.34748871502835 155.92 62.519999999999996 C 151.74748871502837 66.69251128497164 144.98251128497165 66.69251128497164 140.81 62.52000000000001 L 133.61 55.32 C 131.59924224272012 53.323809350762936 130.475013315272 50.60331947825227 130.49 47.77000000000001 L 130.49 47.77 C 131.92357289741165 48.140410435656925 133.3993945758288 48.321946587444 134.88 48.31" stroke-linecap="round" />
</g>
		<g transform="matrix(1 0 0 1 -57.63 -6.54)"  >
<path style="stroke: none; stroke-width: 1; stroke-dasharray: none; stroke-linecap: butt; stroke-dashoffset: 0; stroke-linejoin: miter; stroke-miterlimit: 4; fill: rgb(171,10,61); fill-rule: nonzero; opacity: 1;" vector-effect="non-scaling-stroke"  transform=" translate(-107, -113.96)" d="M 107 152.59 C 81.16 152.59 59.78 119.7 59.78 102.92 C 59.78 93.34 66.78 90.11 73.01 87.82000000000001 C 77.65 80.62 97.25 75.33000000000001 102.51 75.33000000000001 L 107.65 75.33000000000001 C 116.92 75.33000000000001 134.65 80.93 137.70000000000002 88.63000000000001 L 137.75000000000003 88.63000000000001 C 146.22000000000003 90.54 154.22000000000003 92.33000000000001 154.22000000000003 102.91000000000001 C 154.22000000000003 119.69000000000001 132.84000000000003 152.58 107.00000000000003 152.58 M 79.39 91.5 C 79.140151776227 92.78594545064469 78.23234245189239 93.84568938993071 77 94.29 C 69 97.18 67.21000000000001 98.71000000000001 67.21000000000001 102.92 C 67.21000000000001 116.47 86.03 145.15 106.99000000000001 145.15 C 127.95000000000002 145.15 146.77 116.47 146.77 102.92000000000002 C 146.77 98.82000000000002 145.58 98.03000000000002 136.11 95.92000000000002 L 133.59 95.35000000000002 C 131.90315030054353 94.96280556956398 130.7081177193825 93.46071600574352 130.71 91.73000000000002 L 130.71 91.2 C 129.29000000000002 88.47 117.23 82.77000000000001 107.64000000000001 82.77000000000001 L 102.5 82.77000000000001 C 96.85 82.77000000000001 81.38 88.65 79.39 91.50000000000001" stroke-linecap="round" />
</g>
		<g transform="matrix(1 0 0 1 -57.63 -16.75)"  >
<path style="stroke: none; stroke-width: 1; stroke-dasharray: none; stroke-linecap: butt; stroke-dashoffset: 0; stroke-linejoin: miter; stroke-miterlimit: 4; fill: rgb(171,10,61); fill-rule: nonzero; opacity: 1;" vector-effect="non-scaling-stroke"  transform=" translate(-107, -103.74)" d="M 124.8 97 C 124.16468395834829 95.84536284311953 122.96722290621291 95.111680357208 121.64999999999999 95.07 L 92.45 95.07 C 91.14625102765545 95.06763343035442 89.93641040530886 95.74796576605904 89.26112753258012 96.86320566192924 C 88.58584465985138 97.97844555779943 88.54368348703866 99.36581315652457 89.15 100.52 C 93.08000000000001 107.97 99.66000000000001 112.42 106.78 112.42 C 113.89999999999999 112.42 120.32 108.15 124.78 100.7 C 125.43901073105557 99.55657960652285 125.44661128130835 98.1504778097602 124.8 97 M 100.1 102.5 L 113.55 102.5 C 109.64355422323507 105.71644475279672 104.00644577676492 105.71644475279672 100.1 102.5" stroke-linecap="round" />
</g>
		<g transform="matrix(1 0 0 1 -59.03 -93.95)"  >
<path style="stroke: none; stroke-width: 1; stroke-dasharray: none; stroke-linecap: butt; stroke-dashoffset: 0; stroke-linejoin: miter; stroke-miterlimit: 4; fill: rgb(171,10,61); fill-rule: nonzero; opacity: 1;" vector-effect="non-scaling-stroke"  transform=" translate(-105.61, -26.55)" d="M 140.43 30 C 136.95000000000002 30 134.9 29.87 133.72 29.78 L 119.89 2.36 C 119.29161045975768 1.182822232116047 118.18551014978172 0.3458729975675654 116.89 0.08999999999999941 C 115.61088760416347 -0.1730610790106631 114.28131617188104 0.1538225051692672 113.27 0.9799999999999991 L 105.57 7.329999999999999 L 97.91 1 C 96.90206538857073 0.1667588697507888 95.57214129071042 -0.16755906645166685 94.29 0.08999999999999897 C 92.99448985021829 0.3458729975675666 91.88838954024233 1.1828222321160482 91.29 2.360000000000001 L 77.5 29.73 C 76.32 29.82 74.26 29.92 70.79 29.95 C 63.28000000000001 30 59.260000000000005 36.06 59.28000000000001 41.73 C 59.20866537716882 44.795737537430206 60.40766078633792 47.75462294552784 62.59302795938081 49.905902935629 C 64.77839513242371 52.057182925730146 67.75576261286855 53.20951783184521 70.82 53.09 L 140.4 53.09 C 143.46423738713145 53.20951783184521 146.4416048675763 52.057182925730146 148.6269720406192 49.905902935629 C 150.81233921366209 47.75462294552784 152.01133462283119 44.795737537430206 151.94 41.730000000000004 C 151.94 36.06 147.94 30.000000000000004 140.43 29.950000000000003 M 140.43 44.49 L 70.82 44.49 C 68.39999999999999 44.49 67.88999999999999 42.97 67.88 41.7 C 67.81095374114346 40.87164620352672 68.09944230099231 40.0533053733253 68.67270191621192 39.4513827773447 C 69.24596153143155 38.849460181364094 70.04926505867934 38.521419320114056 70.88 38.550000000000004 C 79.39 38.480000000000004 83.19999999999999 38.45 84.38 35.220000000000006 L 96.59 11 L 102.77000000000001 16.1 C 104.3906509513528 17.526982413266865 106.81934904864723 17.526982413266868 108.44000000000001 16.1 L 114.63000000000001 11.000000000000002 L 126.85000000000001 35.17 C 127.95 38.25 131.23000000000002 38.440000000000005 140.36 38.510000000000005 C 141.19073494132067 38.48141932011406 141.99403846856845 38.809460181364095 142.56729808378807 39.4113827773447 C 143.1405576990077 40.0133053733253 143.42904625885654 40.831646203526724 143.36 41.660000000000004 C 143.36 42.93000000000001 142.84 44.45 140.42000000000002 44.45" stroke-linecap="round" />
</g>
</g>
</g>
<g transform="matrix(14.38 0 0 0.37 500 940.83)" id="3e070507-b1b4-4427-a329-86372986675e"  >
<rect style="stroke: rgb(0,0,0); stroke-width: 0; stroke-dasharray: none; stroke-linecap: butt; stroke-dashoffset: 0; stroke-linejoin: miter; stroke-miterlimit: 4; fill: rgb(171,10,61); fill-rule: nonzero; opacity: 1;" vector-effect="non-scaling-stroke"  x="-33.085" y="-33.085" rx="0" ry="0" width="66.17" height="66.17" />
</g>
</svg>